<svg fill="none" height="33" viewBox="0 0 213 33" width="213" xmlns="http://www.w3.org/2000/svg">
  <path
    d="M12.652 11.192H4.948V32H0.0160001V6.8H17.584V32H12.652V11.192ZM30.2779 20.048H32.0059L35.5699 6.8H40.6459L34.8859 25.412C34.5499 26.468 34.1779 27.428 33.7699 28.292C33.3859 29.132 32.9059 29.852 32.3299 30.452C31.7779 31.028 31.1059 31.472 30.3139 31.784C29.5219 32.096 28.5619 32.252 27.4339 32.252C26.7379 32.252 26.1139 32.192 25.5619 32.072C25.0099 31.952 24.4099 31.7 23.7619 31.316L25.0219 27.32C25.4539 27.536 25.8259 27.68 26.1379 27.752C26.4739 27.824 26.8339 27.86 27.2179 27.86C27.7459 27.86 28.1899 27.788 28.5499 27.644C28.9099 27.5 29.1979 27.284 29.4139 26.996C29.6539 26.708 29.8579 26.348 30.0259 25.916C30.1939 25.484 30.3499 24.992 30.4939 24.44H26.8579L19.8019 6.8H25.0939L30.2779 20.048ZM56.3279 11.192H51.6839C51.5639 13.472 51.4319 15.548 51.2879 17.42C51.1679 19.292 50.9999 20.984 50.7839 22.496C50.5919 23.984 50.3399 25.292 50.0279 26.42C49.7399 27.548 49.3559 28.496 48.8759 29.264C48.1799 30.416 47.3999 31.208 46.5359 31.64C45.6719 32.048 44.7839 32.252 43.8719 32.252C43.3199 32.252 42.8279 32.192 42.3959 32.072C41.9879 31.976 41.6759 31.868 41.4599 31.748L41.9999 27.5C42.1199 27.548 42.2519 27.584 42.3959 27.608C42.5639 27.632 42.7199 27.644 42.8639 27.644C43.2479 27.644 43.6319 27.548 44.0159 27.356C44.4239 27.164 44.7719 26.84 45.0599 26.384C45.3959 25.856 45.6839 25.076 45.9239 24.044C46.1639 22.988 46.3559 21.668 46.4999 20.084C46.6679 18.476 46.7879 16.58 46.8599 14.396C46.9559 12.188 47.0399 9.656 47.1119 6.8H61.2599V32H56.3279V11.192ZM71.9738 21.488H69.4178V32H64.4858V6.8H69.4178V17.096H71.9738L77.7338 6.8H83.3498L76.2578 18.968L84.2498 32H78.1658L71.9738 21.488ZM85.6398 19.4C85.6398 17.36 85.8318 15.524 86.2158 13.892C86.5998 12.26 87.1878 10.892 87.9798 9.788C88.7718 8.66 89.7558 7.796 90.9318 7.196C92.1318 6.596 93.5358 6.296 95.1438 6.296C96.8718 6.296 98.3358 6.62 99.5358 7.268C100.736 7.916 101.708 8.816 102.452 9.968C103.22 11.12 103.772 12.5 104.108 14.108C104.468 15.716 104.648 17.48 104.648 19.4C104.648 23.504 103.856 26.72 102.272 29.048C100.712 31.352 98.3358 32.504 95.1438 32.504C93.4158 32.504 91.9398 32.18 90.7158 31.532C89.5158 30.884 88.5318 29.984 87.7638 28.832C87.0198 27.68 86.4798 26.3 86.1438 24.692C85.8078 23.084 85.6398 21.32 85.6398 19.4ZM90.8238 19.4C90.8238 20.624 90.8718 21.764 90.9678 22.82C91.0878 23.876 91.2918 24.8 91.5798 25.592C91.8918 26.36 92.3238 26.972 92.8758 27.428C93.4518 27.884 94.2078 28.112 95.1438 28.112C95.9838 28.112 96.6798 27.944 97.2318 27.608C97.7838 27.248 98.2278 26.708 98.5638 25.988C98.8998 25.268 99.1278 24.368 99.2478 23.288C99.3918 22.184 99.4638 20.888 99.4638 19.4C99.4638 18.224 99.4158 17.108 99.3198 16.052C99.2478 14.996 99.0558 14.072 98.7438 13.28C98.4558 12.488 98.0238 11.864 97.4478 11.408C96.8718 10.928 96.1038 10.688 95.1438 10.688C93.4638 10.688 92.3238 11.42 91.7238 12.884C91.1238 14.348 90.8238 16.52 90.8238 19.4ZM125.118 12.668C125.118 13.292 125.034 13.916 124.866 14.54C124.722 15.164 124.47 15.74 124.11 16.268C123.75 16.772 123.282 17.228 122.706 17.636C122.13 18.02 121.434 18.308 120.618 18.5V18.716C121.338 18.836 122.022 19.04 122.67 19.328C123.318 19.616 123.882 20.012 124.362 20.516C124.842 21.02 125.214 21.632 125.478 22.352C125.766 23.072 125.91 23.924 125.91 24.908C125.91 26.204 125.634 27.332 125.082 28.292C124.53 29.228 123.786 29.996 122.85 30.596C121.938 31.196 120.894 31.64 119.718 31.928C118.542 32.216 117.33 32.36 116.082 32.36C115.674 32.36 115.146 32.36 114.498 32.36C113.874 32.36 113.19 32.336 112.446 32.288C111.726 32.264 110.982 32.216 110.214 32.144C109.47 32.072 108.786 31.964 108.162 31.82V6.98C108.618 6.908 109.134 6.836 109.71 6.764C110.31 6.692 110.946 6.632 111.618 6.584C112.29 6.536 112.974 6.5 113.67 6.476C114.39 6.452 115.098 6.44 115.794 6.44C116.97 6.44 118.11 6.536 119.214 6.728C120.342 6.896 121.338 7.208 122.202 7.664C123.09 8.12 123.798 8.756 124.326 9.572C124.854 10.388 125.118 11.42 125.118 12.668ZM116.118 28.292C116.718 28.292 117.294 28.22 117.846 28.076C118.422 27.932 118.926 27.716 119.358 27.428C119.79 27.116 120.138 26.732 120.402 26.276C120.666 25.82 120.798 25.28 120.798 24.656C120.798 23.864 120.642 23.24 120.33 22.784C120.018 22.328 119.61 21.98 119.106 21.74C118.602 21.476 118.038 21.308 117.414 21.236C116.79 21.164 116.166 21.128 115.542 21.128H112.914V28.076C113.034 28.124 113.226 28.16 113.49 28.184C113.754 28.208 114.03 28.232 114.318 28.256C114.63 28.256 114.942 28.268 115.254 28.292C115.59 28.292 115.878 28.292 116.118 28.292ZM114.498 17.384C114.834 17.384 115.218 17.372 115.65 17.348C116.106 17.324 116.478 17.288 116.766 17.24C117.678 16.952 118.458 16.52 119.106 15.944C119.778 15.368 120.114 14.612 120.114 13.676C120.114 13.052 119.994 12.536 119.754 12.128C119.514 11.72 119.19 11.396 118.782 11.156C118.398 10.916 117.954 10.748 117.45 10.652C116.946 10.556 116.418 10.508 115.866 10.508C115.242 10.508 114.666 10.52 114.138 10.544C113.61 10.568 113.202 10.604 112.914 10.652V17.384H114.498ZM143.5 23.54H147.46V30.74C146.692 31.292 145.708 31.724 144.508 32.036C143.332 32.348 142.12 32.504 140.872 32.504C139.288 32.504 137.776 32.276 136.336 31.82C134.92 31.34 133.672 30.584 132.592 29.552C131.512 28.496 130.648 27.14 130 25.484C129.352 23.804 129.028 21.776 129.028 19.4C129.028 16.928 129.388 14.864 130.108 13.208C130.852 11.528 131.8 10.184 132.952 9.176C134.104 8.144 135.388 7.412 136.804 6.98C138.22 6.524 139.612 6.296 140.98 6.296C142.42 6.296 143.632 6.416 144.616 6.656C145.624 6.896 146.452 7.172 147.1 7.484V14.972H143.14V10.868C142.396 10.748 141.628 10.688 140.836 10.688C139.9 10.688 139.024 10.868 138.208 11.228C137.416 11.564 136.72 12.092 136.12 12.812C135.52 13.532 135.052 14.444 134.716 15.548C134.38 16.628 134.212 17.912 134.212 19.4C134.212 20.696 134.368 21.884 134.68 22.964C134.992 24.02 135.448 24.932 136.048 25.7C136.648 26.468 137.38 27.068 138.244 27.5C139.108 27.908 140.092 28.112 141.196 28.112C141.988 28.112 142.756 28.04 143.5 27.896V23.54ZM158.318 21.488H155.762V32H150.83V6.8H155.762V17.096H158.318L164.078 6.8H169.694L162.602 18.968L170.594 32H164.51L158.318 21.488ZM185.556 18.68L185.844 15.404H185.664L184.188 18.788L177.06 32H172.488V6.8H177.42V19.868L177.06 23.252H177.276L178.824 19.76L185.952 6.8H190.488V32H185.556V18.68ZM207.141 18.68L207.429 15.404H207.249L205.773 18.788L198.645 32H194.073V6.8H199.005V19.868L198.645 23.252H198.861L200.409 19.76L207.537 6.8H212.073V32H207.141V18.68ZM200.913 0.175998C201.009 0.943998 201.285 1.496 201.741 1.832C202.221 2.168 202.833 2.336 203.577 2.336C205.185 2.336 206.073 1.628 206.241 0.211999L210.237 0.823998C209.973 2.336 209.277 3.44 208.149 4.136C207.045 4.832 205.509 5.18 203.541 5.18C202.557 5.18 201.657 5.108 200.841 4.964C200.025 4.82 199.305 4.592 198.681 4.28C198.081 3.944 197.577 3.5 197.169 2.948C196.785 2.396 196.545 1.712 196.449 0.895999L200.913 0.175998Z"
    fill="#F2F2F2" />
</svg>
